Coordinates
version=1
nRows=16
nColumns=22
inDegrees=yes

Units are S.I. units (second, meters, Newtons, ...)
If the header above contains a line with 'inDegrees', this indicates whether rotational values are in degrees (yes) or radians (no).

endheader
time	pelvis_tilt	pelvis_list	pelvis_rotation	pelvis_tx	pelvis_ty	pelvis_tz	hip_flexion_r	hip_adduction_r	hip_rotation_r	knee_angle_r	ankle_angle_r	subtalar_angle_r	hip_flexion_l	hip_adduction_l	hip_rotation_l	knee_angle_l	ankle_angle_l	subtalar_angle_l	lumbar_extension	lumbar_bending	lumbar_rotation
      1.04000000	    -14.05718124	      2.68051084	    -18.67471801	     -1.27884395	      0.97154579	     -0.43174709	     22.54766660	      2.19641421	     -1.31776928	    -22.34907117	     20.64940170	     -7.00525441	     22.13828974	      0.62388454	     -2.23464237	    -21.15848553	     21.00199927	     -2.73407589	      3.47650885	      1.97111707	      6.08139904
      1.05000000	    -14.09206302	      2.46433592	    -18.54230401	     -1.27806978	      0.97109556	     -0.43214324	     22.54782449	      2.38552408	     -1.33020010	    -22.55645872	     21.00926875	     -7.22782637	     22.49694769	      0.51019016	     -1.81614218	    -21.97419079	     21.43085384	     -2.69495055	      3.32971445	      2.15925822	      6.05370316
      1.06000000	    -14.11527798	      2.20849571	    -18.41640944	     -1.27718937	      0.97063721	     -0.43244801	     22.50396213	      2.61545049	     -1.35029420	    -22.74360820	     21.40176646	     -7.44206681	     22.84243080	      0.37325139	     -1.34242682	    -22.82767029	     21.89906855	     -2.67274384	      3.16129075	      2.37497600	      6.05714170
      1.07000000	    -14.11835248	      1.92333155	    -18.30329461	     -1.27618443	      0.97018329	     -0.43265690	     22.41382647	      2.87313965	     -1.37471644	    -22.91670471	     21.83227279	     -7.62991876	     23.15130055	      0.22534680	     -0.82407999	    -23.68898813	     22.40388042	     -2.67851242	      2.96632904	      2.60438316	      6.10752615
      1.08000000	    -14.09749716	      1.61262788	    -18.20069712	     -1.27508049	      0.96974483	     -0.43273525	     22.28341997	      3.15519162	     -1.40833210	    -23.08986137	     22.27946942	     -7.76601989	     23.41050805	      0.06778784	     -0.27408259	    -24.53521255	     22.95113556	     -2.72079973	      2.73939464	      2.82921157	      6.19357850
      1.09000000	    -14.05979395	      1.29899792	    -18.11197444	     -1.27385932	      0.96930845	     -0.43270090	     22.13363492	      3.43739563	     -1.45809647	    -23.27575165	     22.75828778	     -7.85834113	     23.61463866	     -0.07805516	      0.30054525	    -25.33450755	     23.52198660	     -2.79650478	      2.49804614	      3.03049585	      6.33303964
      1.10000000	    -14.00817799	      0.99016691	    -18.03263707	     -1.27253721	      0.96887560	     -0.43255628	     21.98132730	      3.70801344	     -1.54253182	    -23.49248610	     23.24860847	     -7.90213153	     23.75873160	     -0.20531538	      0.90059134	    -26.06493954	     24.10329880	     -2.91015523	      2.24735939	      3.19669711	      6.52296695
      1.11000000	    -13.94015214	      0.70571872	    -17.96091383	     -1.27113604	      0.96843597	     -0.43230304	     21.84774836	      3.94267648	     -1.66415531	    -23.77041771	     23.74876280	     -7.89089231	     23.84362778	     -0.29907930	      1.50288193	    -26.72066665	     24.68810307	     -3.05776313	      1.98704271	      3.30075186	      6.75410572
      1.12000000	    -13.85772479	      0.46618423	    -17.89914566	     -1.26966250	      0.96797377	     -0.43196043	     21.75476728	      4.11694638	     -1.83538146	    -24.13157378	     24.25639831	     -7.83310280	     23.87603243	     -0.34136820	      2.08967316	    -27.29803451	     25.26266098	     -3.22708639	      1.72699750	      3.32674259	      7.00899563
      1.13000000	    -13.76319003	      0.28008518	    -17.83478378	     -1.26812226	      0.96747616	     -0.43156007	     21.71764531	      4.21309991	     -2.07472361	    -24.59363810	     24.75906645	     -7.73513935	     23.86391035	     -0.32317036	      2.66202502	    -27.79971301	     25.80887428	     -3.41605215	      1.46898419	      3.26444185	      7.27863759
      1.14000000	    -13.65783426	      0.15254969	    -17.76385317	     -1.26650381	      0.96693161	     -0.43112594	     21.74255045	      4.21973795	     -2.40229285	    -25.16025592	     25.24042810	     -7.59703450	     23.81668550	     -0.24100678	      3.20736267	    -28.23651059	     26.32271438	     -3.63383817	      1.21890899	      3.11435110	      7.55066748
      1.15000000	    -13.53912092	      0.07641364	    -17.67728984	     -1.26484033	      0.96632132	     -0.43067827	     21.83412551	      4.14586386	     -2.78729836	    -25.84831868	     25.68858815	     -7.47843713	     23.74903272	     -0.10506766	      3.71037756	    -28.63631129	     26.82372877	     -3.84032487	      0.96229967	      2.88823784	      7.77961901
      1.16000000	    -13.40318632	      0.04397636	    -17.56766147	     -1.26309825	      0.96565704	     -0.43023848	     21.97864968	      3.99368424	     -3.23871184	    -26.64540698	     26.10982521	     -7.41160785	     23.65121923	      0.08199286	      4.19320199	    -28.99384739	     27.30679559	     -4.01987569	      0.69438307	      2.60073053	      7.94603623
      1.17000000	    -13.24533912	      0.04670715	    -17.43315288	     -1.26127640	      0.96494655	     -0.42982915	     22.17147270	      3.76611268	     -3.76453093	    -27.55585279	     26.46046098	     -7.30509174	     23.52895447	      0.30892389	      4.63255389	    -29.32948614	     27.77906604	     -4.32463386	      0.40317095	      2.26590760	      8.03755624
      1.18000000	    -13.06300566	      0.08191718	    -17.28005576	     -1.25934545	      0.96420650	     -0.42943234	     22.39551007	      3.47484580	     -4.32842727	    -28.55790403	     26.79321899	     -7.34425563	     23.36720724	      0.57172393	      5.04455330	    -29.62735369	     28.22895732	     -4.50446266	      0.08751024	      1.88935568	      8.08696881
      1.19000000	    -12.85381725	      0.13998962	    -17.11424692	     -1.25731846	      0.96345050	     -0.42905792	     22.64698391	      3.13197046	     -4.91091438	    -29.65201072	     27.05637085	     -7.43571257	     23.17245662	      0.85623986	      5.40985938	    -29.90732854	     28.67851681	     -4.82989122	     -0.26542134	      1.48850081	      8.06855268
